REM MD5 a57acce25399a09b402e8ffa5fa40fb0
FILE "Serial Players Only (France).bin" BINARY
  TRACK 01 MODE2/2352
    INDEX 01 00:00:00
  TRACK 02 AUDIO
    INDEX 00 07:50:19
    INDEX 01 07:52:19
  TRACK 03 AUDIO
    INDEX 00 11:17:60
    INDEX 01 11:19:60
  TRACK 04 AUDIO
    INDEX 00 14:28:37
    INDEX 01 14:30:37
  TRACK 05 AUDIO
    INDEX 00 16:22:27
    INDEX 01 16:24:27
REM LEADOUT 19:34:36
